<svg width="12" height="12" viewBox="0 0 12 12" fill="none" xmlns="http://www.w3.org/2000/svg">
<path d="M8.5 5.5H9C9.13261 5.5 9.25979 5.44732 9.35355 5.35355C9.44732 5.25979 9.5 5.13261 9.5 5V4.5C9.5 4.36739 9.44732 4.24021 9.35355 4.14645C9.25979 4.05268 9.13261 4 9 4H8.5C8.36739 4 8.24021 4.05268 8.14645 4.14645C8.05268 4.24021 8 4.36739 8 4.5V5C8 5.13261 8.05268 5.25979 8.14645 5.35355C8.24021 5.44732 8.36739 5.5 8.5 5.5ZM3 6H5.5C5.63261 6 5.75979 5.94732 5.85355 5.85355C5.94732 5.75979 6 5.63261 6 5.5C6 5.36739 5.94732 5.24021 5.85355 5.14645C5.75979 5.05268 5.63261 5 5.5 5H3C2.86739 5 2.74021 5.05268 2.64645 5.14645C2.55268 5.24021 2.5 5.36739 2.5 5.5C2.5 5.63261 2.55268 5.75979 2.64645 5.85355C2.74021 5.94732 2.86739 6 3 6ZM11 2H1C0.867392 2 0.740215 2.05268 0.646447 2.14645C0.552678 2.24021 0.5 2.36739 0.5 2.5V9.5C0.5 9.63261 0.552678 9.75979 0.646447 9.85355C0.740215 9.94732 0.867392 10 1 10H11C11.1326 10 11.2598 9.94732 11.3536 9.85355C11.4473 9.75979 11.5 9.63261 11.5 9.5V2.5C11.5 2.36739 11.4473 2.24021 11.3536 2.14645C11.2598 2.05268 11.1326 2 11 2ZM10.5 9H1.5V3H10.5V9ZM3 8H5.5C5.63261 8 5.75979 7.94732 5.85355 7.85355C5.94732 7.75979 6 7.63261 6 7.5C6 7.36739 5.94732 7.24021 5.85355 7.14645C5.75979 7.05268 5.63261 7 5.5 7H3C2.86739 7 2.74021 7.05268 2.64645 7.14645C2.55268 7.24021 2.5 7.36739 2.5 7.5C2.5 7.63261 2.55268 7.75979 2.64645 7.85355C2.74021 7.94732 2.86739 8 3 8Z" fill="#D1CDCD"/>
</svg>
