<svg width="16" height="16" viewBox="0 0 16 16" fill="none" xmlns="http://www.w3.org/2000/svg">
<path d="M8 9.33325C8.13186 9.33325 8.26075 9.29415 8.37038 9.2209C8.48002 9.14764 8.56546 9.04352 8.61592 8.92171C8.66638 8.79989 8.67958 8.66585 8.65386 8.53652C8.62814 8.4072 8.56464 8.28842 8.47141 8.19518C8.37817 8.10195 8.25938 8.03845 8.13006 8.01273C8.00074 7.987 7.8667 8.00021 7.74488 8.05066C7.62306 8.10112 7.51894 8.18657 7.44569 8.2962C7.37244 8.40584 7.33334 8.53473 7.33334 8.66658C7.33334 8.8434 7.40357 9.01297 7.5286 9.13799C7.65362 9.26301 7.82319 9.33325 8 9.33325ZM11.3333 9.33325C11.4652 9.33325 11.5941 9.29415 11.7037 9.2209C11.8133 9.14764 11.8988 9.04352 11.9493 8.92171C11.9997 8.79989 12.0129 8.66585 11.9872 8.53652C11.9615 8.4072 11.898 8.28842 11.8047 8.19518C11.7115 8.10195 11.5927 8.03845 11.4634 8.01273C11.3341 7.987 11.2 8.00021 11.0782 8.05066C10.9564 8.10112 10.8523 8.18657 10.779 8.2962C10.7058 8.40584 10.6667 8.53473 10.6667 8.66658C10.6667 8.8434 10.7369 9.01297 10.8619 9.13799C10.987 9.26301 11.1565 9.33325 11.3333 9.33325ZM8 11.9999C8.13186 11.9999 8.26075 11.9608 8.37038 11.8876C8.48002 11.8143 8.56546 11.7102 8.61592 11.5884C8.66638 11.4666 8.67958 11.3325 8.65386 11.2032C8.62814 11.0739 8.56464 10.9551 8.47141 10.8618C8.37817 10.7686 8.25938 10.7051 8.13006 10.6794C8.00074 10.6537 7.8667 10.6669 7.74488 10.7173C7.62306 10.7678 7.51894 10.8532 7.44569 10.9629C7.37244 11.0725 7.33334 11.2014 7.33334 11.3333C7.33334 11.5101 7.40357 11.6796 7.5286 11.8047C7.65362 11.9297 7.82319 11.9999 8 11.9999ZM11.3333 11.9999C11.4652 11.9999 11.5941 11.9608 11.7037 11.8876C11.8133 11.8143 11.8988 11.7102 11.9493 11.5884C11.9997 11.4666 12.0129 11.3325 11.9872 11.2032C11.9615 11.0739 11.898 10.9551 11.8047 10.8618C11.7115 10.7686 11.5927 10.7051 11.4634 10.6794C11.3341 10.6537 11.2 10.6669 11.0782 10.7173C10.9564 10.7678 10.8523 10.8532 10.779 10.9629C10.7058 11.0725 10.6667 11.2014 10.6667 11.3333C10.6667 11.5101 10.7369 11.6796 10.8619 11.8047C10.987 11.9297 11.1565 11.9999 11.3333 11.9999ZM4.66667 9.33325C4.79852 9.33325 4.92742 9.29415 5.03705 9.2209C5.14668 9.14764 5.23213 9.04352 5.28259 8.92171C5.33305 8.79989 5.34625 8.66585 5.32053 8.53652C5.2948 8.4072 5.23131 8.28842 5.13807 8.19518C5.04484 8.10195 4.92605 8.03845 4.79673 8.01273C4.66741 7.987 4.53336 8.00021 4.41155 8.05066C4.28973 8.10112 4.18561 8.18657 4.11236 8.2962C4.0391 8.40584 4 8.53473 4 8.66658C4 8.8434 4.07024 9.01297 4.19526 9.13799C4.32029 9.26301 4.48986 9.33325 4.66667 9.33325ZM12.6667 2.66659H12V1.99992C12 1.82311 11.9298 1.65354 11.8047 1.52851C11.6797 1.40349 11.5101 1.33325 11.3333 1.33325C11.1565 1.33325 10.987 1.40349 10.8619 1.52851C10.7369 1.65354 10.6667 1.82311 10.6667 1.99992V2.66659H5.33334V1.99992C5.33334 1.82311 5.2631 1.65354 5.13807 1.52851C5.01305 1.40349 4.84348 1.33325 4.66667 1.33325C4.48986 1.33325 4.32029 1.40349 4.19526 1.52851C4.07024 1.65354 4 1.82311 4 1.99992V2.66659H3.33334C2.8029 2.66659 2.2942 2.8773 1.91912 3.25237C1.54405 3.62744 1.33334 4.13615 1.33334 4.66658V12.6666C1.33334 13.197 1.54405 13.7057 1.91912 14.0808C2.2942 14.4559 2.8029 14.6666 3.33334 14.6666H12.6667C13.1971 14.6666 13.7058 14.4559 14.0809 14.0808C14.456 13.7057 14.6667 13.197 14.6667 12.6666V4.66658C14.6667 4.13615 14.456 3.62744 14.0809 3.25237C13.7058 2.8773 13.1971 2.66659 12.6667 2.66659ZM13.3333 12.6666C13.3333 12.8434 13.2631 13.013 13.1381 13.138C13.013 13.263 12.8435 13.3333 12.6667 13.3333H3.33334C3.15652 13.3333 2.98696 13.263 2.86193 13.138C2.73691 13.013 2.66667 12.8434 2.66667 12.6666V6.66658H13.3333V12.6666ZM13.3333 5.33325H2.66667V4.66658C2.66667 4.48977 2.73691 4.3202 2.86193 4.19518C2.98696 4.07016 3.15652 3.99992 3.33334 3.99992H12.6667C12.8435 3.99992 13.013 4.07016 13.1381 4.19518C13.2631 4.3202 13.3333 4.48977 13.3333 4.66658V5.33325ZM4.66667 11.9999C4.79852 11.9999 4.92742 11.9608 5.03705 11.8876C5.14668 11.8143 5.23213 11.7102 5.28259 11.5884C5.33305 11.4666 5.34625 11.3325 5.32053 11.2032C5.2948 11.0739 5.23131 10.9551 5.13807 10.8618C5.04484 10.7686 4.92605 10.7051 4.79673 10.6794C4.66741 10.6537 4.53336 10.6669 4.41155 10.7173C4.28973 10.7678 4.18561 10.8532 4.11236 10.9629C4.0391 11.0725 4 11.2014 4 11.3333C4 11.5101 4.07024 11.6796 4.19526 11.8047C4.32029 11.9297 4.48986 11.9999 4.66667 11.9999Z" fill="#D1CDCD"/>
</svg>
