<svg width="25" height="25" viewBox="0 0 25 25" fill="none" xmlns="http://www.w3.org/2000/svg">
<path d="M15.3333 9.15617L10.8646 13.6353L9.14583 11.9166C9.05245 11.8075 8.93754 11.719 8.8083 11.6565C8.67907 11.5939 8.5383 11.5588 8.39485 11.5533C8.25139 11.5477 8.10834 11.5719 7.97466 11.6243C7.84099 11.6766 7.71959 11.7561 7.61807 11.8576C7.51656 11.9591 7.43712 12.0805 7.38475 12.2142C7.33238 12.3478 7.30821 12.4909 7.31375 12.6343C7.31929 12.7778 7.35443 12.9186 7.41695 13.0478C7.47948 13.177 7.56804 13.292 7.67708 13.3853L10.125 15.8437C10.2223 15.9402 10.3378 16.0166 10.4647 16.0684C10.5916 16.1203 10.7275 16.1465 10.8646 16.1458C11.1379 16.1446 11.3997 16.0361 11.5938 15.8437L16.8021 10.6353C16.8997 10.5385 16.9772 10.4233 17.0301 10.2964C17.083 10.1694 17.1102 10.0333 17.1102 9.89575C17.1102 9.75824 17.083 9.62209 17.0301 9.49515C16.9772 9.36821 16.8997 9.253 16.8021 9.15617C16.6069 8.96216 16.3429 8.85326 16.0677 8.85326C15.7925 8.85326 15.5285 8.96216 15.3333 9.15617ZM12.5 2.08325C10.4398 2.08325 8.42582 2.69418 6.71281 3.83878C4.9998 4.98337 3.66467 6.61024 2.87625 8.51363C2.08784 10.417 1.88156 12.5115 2.28349 14.5321C2.68542 16.5527 3.67751 18.4088 5.1343 19.8656C6.5911 21.3224 8.44717 22.3145 10.4678 22.7164C12.4884 23.1184 14.5829 22.9121 16.4863 22.1237C18.3897 21.3353 20.0165 20.0001 21.1611 18.2871C22.3057 16.5741 22.9167 14.5601 22.9167 12.4999C22.9167 11.132 22.6472 9.77744 22.1237 8.51363C21.6003 7.24982 20.833 6.1015 19.8657 5.13422C18.8984 4.16695 17.7501 3.39966 16.4863 2.87617C15.2225 2.35269 13.8679 2.08325 12.5 2.08325ZM12.5 20.8333C10.8518 20.8333 9.24066 20.3445 7.87025 19.4288C6.49984 18.5132 5.43173 17.2117 4.801 15.6889C4.17027 14.1662 4.00525 12.4907 4.32679 10.8742C4.64833 9.25766 5.44201 7.7728 6.60744 6.60736C7.77288 5.44192 9.25774 4.64825 10.8742 4.32671C12.4908 4.00516 14.1663 4.17019 15.689 4.80092C17.2117 5.43165 18.5132 6.49976 19.4289 7.87017C20.3446 9.24058 20.8333 10.8517 20.8333 12.4999C20.8333 14.7101 19.9554 16.8297 18.3926 18.3925C16.8298 19.9553 14.7101 20.8333 12.5 20.8333Z" fill="#34C759"/>
</svg>
