<svg width="16" height="16" viewBox="0 0 16 16" fill="none" xmlns="http://www.w3.org/2000/svg">
<path d="M12.6667 2H3.33337C2.80294 2 2.29423 2.21071 1.91916 2.58579C1.54409 2.96086 1.33337 3.46957 1.33337 4V9.33333C1.33337 9.86377 1.54409 10.3725 1.91916 10.7475C2.29423 11.1226 2.80294 11.3333 3.33337 11.3333H7.33337V12.6667H4.66671C4.4899 12.6667 4.32033 12.7369 4.1953 12.8619C4.07028 12.987 4.00004 13.1565 4.00004 13.3333C4.00004 13.5101 4.07028 13.6797 4.1953 13.8047C4.32033 13.9298 4.4899 14 4.66671 14H11.3334C11.5102 14 11.6798 13.9298 11.8048 13.8047C11.9298 13.6797 12 13.5101 12 13.3333C12 13.1565 11.9298 12.987 11.8048 12.8619C11.6798 12.7369 11.5102 12.6667 11.3334 12.6667H8.66671V11.3333H12.6667C13.1971 11.3333 13.7058 11.1226 14.0809 10.7475C14.456 10.3725 14.6667 9.86377 14.6667 9.33333V4C14.6667 3.46957 14.456 2.96086 14.0809 2.58579C13.7058 2.21071 13.1971 2 12.6667 2ZM13.3334 9.33333C13.3334 9.51014 13.2631 9.67971 13.1381 9.80474C13.0131 9.92976 12.8435 10 12.6667 10H3.33337C3.15656 10 2.98699 9.92976 2.86197 9.80474C2.73695 9.67971 2.66671 9.51014 2.66671 9.33333V4C2.66671 3.82319 2.73695 3.65362 2.86197 3.5286C2.98699 3.40357 3.15656 3.33333 3.33337 3.33333H12.6667C12.8435 3.33333 13.0131 3.40357 13.1381 3.5286C13.2631 3.65362 13.3334 3.82319 13.3334 4V9.33333Z" fill="#7F2828"/>
</svg>
