<svg width="16" height="16" viewBox="0 0 16 16" fill="none" xmlns="http://www.w3.org/2000/svg">
<path d="M14.3237 7.38661L13.2018 4.92124C13.0974 4.69107 12.8256 4.59004 12.5966 4.6945C12.3666 4.79895 12.2652 5.07027 12.3698 5.29975L13.139 6.9905H10.1671C9.91476 6.9905 9.70996 7.1953 9.70996 7.44764C9.70996 7.69998 9.91476 7.90478 10.1671 7.90478H13.2962L12.3694 9.94181C12.2647 10.1713 12.3662 10.4426 12.5961 10.5471C12.6576 10.5747 12.7218 10.5882 12.7852 10.5882C12.9589 10.5882 13.1248 10.4886 13.2014 10.3203L14.3303 7.83918C14.3541 7.79438 14.3696 7.74615 14.3774 7.69633C14.3973 7.59027 14.3774 7.48033 14.3237 7.38661Z" fill="#D1CDCD"/>
<path d="M11.8857 10.9276C11.6333 10.9276 11.4285 11.1322 11.4285 11.3847V13.2147H8.91426V3.54291C8.91426 3.14931 8.72912 2.80005 8.3554 2.67548L5.70352 1.78611H11.4285V4.07045C11.4285 4.32279 11.6333 4.52759 11.8857 4.52759C12.138 4.52759 12.3428 4.32279 12.3428 4.07045V1.32759C12.3428 1.07525 12.3435 0.87182 12.0909 0.87182H2.97735L2.90306 0.846906C2.80866 0.815363 2.74443 0.800049 2.64729 0.800049C2.4578 0.800049 2.20386 0.85902 2.04615 0.97262C1.80775 1.14451 1.59998 1.42039 1.59998 1.71433V12.5879C1.59998 12.9813 1.91838 13.3308 2.29163 13.4554L7.81072 15.2839C7.90512 15.3153 8.0194 15.3308 8.11632 15.3308C8.30603 15.3308 8.43518 15.2718 8.59266 15.158C8.83106 14.9861 8.91426 14.7102 8.91426 14.4165V14.129H12.0909C12.3433 14.129 12.3428 13.9228 12.3428 13.6704V11.3847C12.3428 11.1322 12.1383 10.9276 11.8857 10.9276ZM7.99998 14.4165L2.51426 12.5879V1.78611V1.76805L2.56386 1.73171L7.99998 3.54291V14.4165Z" fill="#D1CDCD"/>
<path d="M6.99041 10.875C7.11681 10.875 7.21898 10.7728 7.21898 10.6464V9.27496C7.21898 9.14856 7.11681 9.04639 6.99041 9.04639C6.86401 9.04639 6.76184 9.14856 6.76184 9.27496V10.6464C6.76184 10.7728 6.86401 10.875 6.99041 10.875Z" fill="#D1CDCD"/>
</svg>
