<svg width="30" height="30" viewBox="0 0 30 30" fill="none" xmlns="http://www.w3.org/2000/svg">
<rect width="30" height="30" rx="15" fill="#7F2828"/>
<path d="M12.3333 12.3333C12.1565 12.3333 11.987 12.4035 11.8619 12.5285C11.7369 12.6535 11.6667 12.8231 11.6667 12.9999C11.6667 13.1767 11.7369 13.3463 11.8619 13.4713C11.987 13.5963 12.1565 13.6666 12.3333 13.6666H13C13.1768 13.6666 13.3464 13.5963 13.4714 13.4713C13.5964 13.3463 13.6667 13.1767 13.6667 12.9999C13.6667 12.8231 13.5964 12.6535 13.4714 12.5285C13.3464 12.4035 13.1768 12.3333 13 12.3333H12.3333ZM15.6667 20.3333H11C10.8232 20.3333 10.6536 20.263 10.5286 20.138C10.4036 20.013 10.3333 19.8434 10.3333 19.6666V10.3333C10.3333 10.1564 10.4036 9.98687 10.5286 9.86185C10.6536 9.73682 10.8232 9.66659 11 9.66659H14.3333V11.6666C14.3333 12.197 14.544 12.7057 14.9191 13.0808C15.2942 13.4559 15.8029 13.6666 16.3333 13.6666H18.3333V14.9999C18.3333 15.1767 18.4036 15.3463 18.5286 15.4713C18.6536 15.5963 18.8232 15.6666 19 15.6666C19.1768 15.6666 19.3464 15.5963 19.4714 15.4713C19.5964 15.3463 19.6667 15.1767 19.6667 14.9999V12.9999C19.6667 12.9999 19.6667 12.9999 19.6667 12.9599C19.6597 12.8987 19.6463 12.8383 19.6267 12.7799V12.7199C19.5946 12.6514 19.5519 12.5884 19.5 12.5333L15.5 8.53325C15.4449 8.4814 15.3819 8.43864 15.3133 8.40659C15.2913 8.40272 15.2687 8.40272 15.2467 8.40659C15.1818 8.37192 15.1122 8.3472 15.04 8.33325H11C10.4696 8.33325 9.96086 8.54397 9.58579 8.91904C9.21071 9.29411 9 9.80282 9 10.3333V19.6666C9 20.197 9.21071 20.7057 9.58579 21.0808C9.96086 21.4559 10.4696 21.6666 11 21.6666H15.6667C15.8435 21.6666 16.013 21.5963 16.1381 21.4713C16.2631 21.3463 16.3333 21.1767 16.3333 20.9999C16.3333 20.8231 16.2631 20.6535 16.1381 20.5285C16.013 20.4035 15.8435 20.3333 15.6667 20.3333ZM15.6667 10.6066L17.3933 12.3333H16.3333C16.1565 12.3333 15.987 12.263 15.8619 12.138C15.7369 12.013 15.6667 11.8434 15.6667 11.6666V10.6066ZM16.3333 14.9999H12.3333C12.1565 14.9999 11.987 15.0702 11.8619 15.1952C11.7369 15.3202 11.6667 15.4898 11.6667 15.6666C11.6667 15.8434 11.7369 16.013 11.8619 16.138C11.987 16.263 12.1565 16.3333 12.3333 16.3333H16.3333C16.5101 16.3333 16.6797 16.263 16.8047 16.138C16.9298 16.013 17 15.8434 17 15.6666C17 15.4898 16.9298 15.3202 16.8047 15.1952C16.6797 15.0702 16.5101 14.9999 16.3333 14.9999ZM20.8067 19.1933C20.7447 19.1308 20.671 19.0812 20.5897 19.0473C20.5085 19.0135 20.4213 18.9961 20.3333 18.9961C20.2453 18.9961 20.1582 19.0135 20.0769 19.0473C19.9957 19.0812 19.922 19.1308 19.86 19.1933L19.6667 19.3933V17.6666C19.6667 17.4898 19.5964 17.3202 19.4714 17.1952C19.3464 17.0702 19.1768 16.9999 19 16.9999C18.8232 16.9999 18.6536 17.0702 18.5286 17.1952C18.4036 17.3202 18.3333 17.4898 18.3333 17.6666V19.3933L18.14 19.1933C18.0145 19.0677 17.8442 18.9972 17.6667 18.9972C17.4891 18.9972 17.3189 19.0677 17.1933 19.1933C17.0678 19.3188 16.9973 19.4891 16.9973 19.6666C16.9973 19.8441 17.0678 20.0144 17.1933 20.1399L18.5267 21.4733C18.5901 21.5339 18.6648 21.5815 18.7467 21.6133C18.8265 21.6485 18.9128 21.6667 19 21.6667C19.0872 21.6667 19.1735 21.6485 19.2533 21.6133C19.3352 21.5815 19.4099 21.5339 19.4733 21.4733L20.8067 20.1399C20.8692 20.0779 20.9187 20.0042 20.9526 19.923C20.9864 19.8417 21.0039 19.7546 21.0039 19.6666C21.0039 19.5786 20.9864 19.4914 20.9526 19.4102C20.9187 19.329 20.8692 19.2552 20.8067 19.1933ZM15 18.9999C15.1768 18.9999 15.3464 18.9297 15.4714 18.8047C15.5964 18.6796 15.6667 18.5101 15.6667 18.3333C15.6667 18.1564 15.5964 17.9869 15.4714 17.8618C15.3464 17.7368 15.1768 17.6666 15 17.6666H12.3333C12.1565 17.6666 11.987 17.7368 11.8619 17.8618C11.7369 17.9869 11.6667 18.1564 11.6667 18.3333C11.6667 18.5101 11.7369 18.6796 11.8619 18.8047C11.987 18.9297 12.1565 18.9999 12.3333 18.9999H15Z" fill="white"/>
</svg>
