<svg width="24" height="24" viewBox="0 0 24 24" fill="none" xmlns="http://www.w3.org/2000/svg">
<path d="M11.7007 2C9.77221 2 7.88704 2.58649 6.28357 3.6853C4.6801 4.78412 3.43035 6.3459 2.69235 8.17317C1.95436 10.0004 1.76127 12.0111 2.13749 13.9509C2.51372 15.8907 3.44237 17.6725 4.80601 19.0711C6.16964 20.4696 7.90703 21.422 9.79845 21.8079C11.6899 22.1937 13.6504 21.9957 15.4321 21.2388C17.2137 20.4819 18.7366 19.2002 19.808 17.5557C20.8794 15.9112 21.4512 13.9778 21.4512 12C21.4512 10.6868 21.199 9.38642 20.709 8.17317C20.219 6.95991 19.5008 5.85752 18.5954 4.92893C17.6899 4.00035 16.615 3.26375 15.4321 2.7612C14.2491 2.25866 12.9811 2 11.7007 2ZM11.7007 20C10.1579 20 8.64977 19.5308 7.36699 18.6518C6.08422 17.7727 5.08442 16.5233 4.49402 15.0615C3.90362 13.5997 3.74915 11.9911 4.05013 10.4393C4.35111 8.88743 5.09403 7.46197 6.18494 6.34315C7.27585 5.22433 8.66576 4.4624 10.1789 4.15372C11.692 3.84504 13.2604 4.00346 14.6858 4.60896C16.1111 5.21447 17.3294 6.23984 18.1865 7.55544C19.0436 8.87103 19.5011 10.4177 19.5011 12C19.5011 14.1217 18.6793 16.1566 17.2164 17.6569C15.7536 19.1571 13.7695 20 11.7007 20ZM15.6009 11H12.6757V8C12.6757 7.73478 12.573 7.48043 12.3901 7.29289C12.2073 7.10536 11.9593 7 11.7007 7C11.4421 7 11.1941 7.10536 11.0112 7.29289C10.8284 7.48043 10.7256 7.73478 10.7256 8V11H7.80046C7.54186 11 7.29385 11.1054 7.111 11.2929C6.92814 11.4804 6.82541 11.7348 6.82541 12C6.82541 12.2652 6.92814 12.5196 7.111 12.7071C7.29385 12.8946 7.54186 13 7.80046 13H10.7256V16C10.7256 16.2652 10.8284 16.5196 11.0112 16.7071C11.1941 16.8946 11.4421 17 11.7007 17C11.9593 17 12.2073 16.8946 12.3901 16.7071C12.573 16.5196 12.6757 16.2652 12.6757 16V13H15.6009C15.8595 13 16.1075 12.8946 16.2904 12.7071C16.4732 12.5196 16.576 12.2652 16.576 12C16.576 11.7348 16.4732 11.4804 16.2904 11.2929C16.1075 11.1054 15.8595 11 15.6009 11Z" fill="#007AFF"/>
</svg>
