<svg width="16" height="16" viewBox="0 0 16 16" fill="none" xmlns="http://www.w3.org/2000/svg">
<path d="M8.19996 8.14658C8.55568 7.83867 8.84099 7.45784 9.03654 7.02993C9.23209 6.60203 9.3333 6.13706 9.33329 5.66658C9.33329 4.78253 8.9821 3.93468 8.35698 3.30956C7.73186 2.68444 6.88401 2.33325 5.99996 2.33325C5.1159 2.33325 4.26806 2.68444 3.64294 3.30956C3.01782 3.93468 2.66663 4.78253 2.66663 5.66658C2.66662 6.13706 2.76783 6.60203 2.96338 7.02993C3.15893 7.45784 3.44424 7.83867 3.79996 8.14658C2.86672 8.56917 2.07494 9.2516 1.51928 10.1123C0.963623 10.973 0.667607 11.9755 0.666626 12.9999C0.666626 13.1767 0.736864 13.3463 0.861888 13.4713C0.986912 13.5963 1.15648 13.6666 1.33329 13.6666C1.5101 13.6666 1.67967 13.5963 1.8047 13.4713C1.92972 13.3463 1.99996 13.1767 1.99996 12.9999C1.99996 11.9391 2.42139 10.9216 3.17153 10.1715C3.92168 9.42135 4.93909 8.99992 5.99996 8.99992C7.06083 8.99992 8.07824 9.42135 8.82839 10.1715C9.57853 10.9216 9.99996 11.9391 9.99996 12.9999C9.99996 13.1767 10.0702 13.3463 10.1952 13.4713C10.3202 13.5963 10.4898 13.6666 10.6666 13.6666C10.8434 13.6666 11.013 13.5963 11.138 13.4713C11.2631 13.3463 11.3333 13.1767 11.3333 12.9999C11.3323 11.9755 11.0363 10.973 10.4806 10.1123C9.92498 9.2516 9.1332 8.56917 8.19996 8.14658ZM5.99996 7.66658C5.6044 7.66658 5.21772 7.54929 4.88882 7.32952C4.55992 7.10976 4.30358 6.7974 4.1522 6.43195C4.00083 6.0665 3.96122 5.66437 4.03839 5.2764C4.11556 4.88844 4.30604 4.53208 4.58575 4.25237C4.86545 3.97267 5.22182 3.78219 5.60978 3.70501C5.99774 3.62784 6.39987 3.66745 6.76533 3.81883C7.13078 3.9702 7.44314 4.22655 7.6629 4.55544C7.88266 4.88434 7.99996 5.27102 7.99996 5.66658C7.99996 6.19702 7.78925 6.70573 7.41417 7.0808C7.0391 7.45587 6.53039 7.66658 5.99996 7.66658ZM12.4933 7.87992C12.9199 7.39947 13.1986 6.80595 13.2958 6.17081C13.393 5.53567 13.3046 4.88597 13.0411 4.29992C12.7777 3.71387 12.3505 3.21645 11.8109 2.86753C11.2714 2.51862 10.6425 2.33308 9.99996 2.33325C9.82315 2.33325 9.65358 2.40349 9.52855 2.52851C9.40353 2.65354 9.33329 2.82311 9.33329 2.99992C9.33329 3.17673 9.40353 3.3463 9.52855 3.47132C9.65358 3.59635 9.82315 3.66659 9.99996 3.66659C10.5304 3.66659 11.0391 3.8773 11.4142 4.25237C11.7892 4.62744 12 5.13615 12 5.66658C11.999 6.01674 11.9062 6.36052 11.7307 6.66353C11.5552 6.96654 11.3032 7.21817 11 7.39325C10.9011 7.45027 10.8186 7.53169 10.7602 7.62975C10.7018 7.7278 10.6696 7.83919 10.6666 7.95325C10.6638 8.06643 10.6899 8.17845 10.7424 8.27876C10.7949 8.37906 10.8721 8.46435 10.9666 8.52659L11.2266 8.69992L11.3133 8.74658C12.1169 9.12773 12.7948 9.73058 13.2673 10.4841C13.7397 11.2377 13.987 12.1105 13.98 12.9999C13.98 13.1767 14.0502 13.3463 14.1752 13.4713C14.3002 13.5963 14.4698 13.6666 14.6466 13.6666C14.8234 13.6666 14.993 13.5963 15.118 13.4713C15.2431 13.3463 15.3133 13.1767 15.3133 12.9999C15.3187 11.9769 15.0625 10.9694 14.5689 10.0733C14.0754 9.17717 13.3609 8.42213 12.4933 7.87992Z" fill="#D1CDCD"/>
</svg>
